<svg width="294" height="63" viewBox="0 0 294 63" fill="none" xmlns="http://www.w3.org/2000/svg">
    <g filter="url(#filter0_d)">
        <path d="M34.6797 31.3086H14.0781V53H5.18359V1.8125H37.7031V8.98438H14.0781V24.207H34.6797V31.3086ZM54.9062 53H46.0469V1.8125H54.9062V53ZM107.195 53H98.3008L75.4844 16.6836V53H66.5898V1.8125H75.4844L98.3711 38.2695V1.8125H107.195V53ZM136.492 41.8555L149.5 1.8125H159.273L140.852 53H132.238L113.887 1.8125H123.625L136.492 41.8555ZM195.742 30.1484H174.719V45.8984H199.293V53H165.824V1.8125H199.047V8.98438H174.719V23.1172H195.742V30.1484ZM234.039 39.8164C234.039 37.5664 233.242 35.832 231.648 34.6133C230.078 33.3945 227.23 32.1641 223.105 30.9219C218.98 29.6797 215.699 28.2969 213.262 26.7734C208.598 23.8438 206.266 20.0234 206.266 15.3125C206.266 11.1875 207.941 7.78906 211.293 5.11719C214.668 2.44531 219.039 1.10938 224.406 1.10938C227.969 1.10938 231.145 1.76562 233.934 3.07812C236.723 4.39062 238.914 6.26562 240.508 8.70312C242.102 11.1172 242.898 13.8008 242.898 16.7539H234.039C234.039 14.082 233.195 11.9961 231.508 10.4961C229.844 8.97266 227.453 8.21094 224.336 8.21094C221.43 8.21094 219.168 8.83203 217.551 10.0742C215.957 11.3164 215.16 13.0508 215.16 15.2773C215.16 17.1523 216.027 18.7227 217.762 19.9883C219.496 21.2305 222.355 22.4492 226.34 23.6445C230.324 24.8164 233.523 26.1641 235.938 27.6875C238.352 29.1875 240.121 30.9219 241.246 32.8906C242.371 34.8359 242.934 37.1211 242.934 39.7461C242.934 44.0117 241.293 47.4102 238.012 49.9414C234.754 52.4492 230.324 53.7031 224.723 53.7031C221.02 53.7031 217.609 53.0234 214.492 51.6641C211.398 50.2812 208.984 48.3828 207.25 45.9688C205.539 43.5547 204.684 40.7422 204.684 37.5312H213.578C213.578 40.4375 214.539 42.6875 216.461 44.2812C218.383 45.875 221.137 46.6719 224.723 46.6719C227.816 46.6719 230.137 46.0508 231.684 44.8086C233.254 43.543 234.039 41.8789 234.039 39.8164ZM288.473 8.98438H272.512V53H263.688V8.98438H247.867V1.8125H288.473V8.98438Z" fill="#FAFF00" />
        <path d="M34.6797 31.3086V32.3086H35.6797V31.3086H34.6797ZM14.0781 31.3086V30.3086H13.0781V31.3086H14.0781ZM14.0781 53V54H15.0781V53H14.0781ZM5.18359 53H4.18359V54H5.18359V53ZM5.18359 1.8125V0.8125H4.18359V1.8125H5.18359ZM37.7031 1.8125H38.7031V0.8125H37.7031V1.8125ZM37.7031 8.98438V9.98438H38.7031V8.98438H37.7031ZM14.0781 8.98438V7.98438H13.0781V8.98438H14.0781ZM14.0781 24.207H13.0781V25.207H14.0781V24.207ZM34.6797 24.207H35.6797V23.207H34.6797V24.207ZM34.6797 30.3086H14.0781V32.3086H34.6797V30.3086ZM13.0781 31.3086V53H15.0781V31.3086H13.0781ZM14.0781 52H5.18359V54H14.0781V52ZM6.18359 53V1.8125H4.18359V53H6.18359ZM5.18359 2.8125H37.7031V0.8125H5.18359V2.8125ZM36.7031 1.8125V8.98438H38.7031V1.8125H36.7031ZM37.7031 7.98438H14.0781V9.98438H37.7031V7.98438ZM13.0781 8.98438V24.207H15.0781V8.98438H13.0781ZM14.0781 25.207H34.6797V23.207H14.0781V25.207ZM33.6797 24.207V31.3086H35.6797V24.207H33.6797ZM54.9062 53V54H55.9062V53H54.9062ZM46.0469 53H45.0469V54H46.0469V53ZM46.0469 1.8125V0.8125H45.0469V1.8125H46.0469ZM54.9062 1.8125H55.9062V0.8125H54.9062V1.8125ZM54.9062 52H46.0469V54H54.9062V52ZM47.0469 53V1.8125H45.0469V53H47.0469ZM46.0469 2.8125H54.9062V0.8125H46.0469V2.8125ZM53.9062 1.8125V53H55.9062V1.8125H53.9062ZM107.195 53V54H108.195V53H107.195ZM98.3008 53L97.454 53.532L97.7481 54H98.3008V53ZM75.4844 16.6836L76.3311 16.1516L74.4844 13.2122V16.6836H75.4844ZM75.4844 53V54H76.4844V53H75.4844ZM66.5898 53H65.5898V54H66.5898V53ZM66.5898 1.8125V0.8125H65.5898V1.8125H66.5898ZM75.4844 1.8125L76.3313 1.28082L76.0373 0.8125H75.4844V1.8125ZM98.3711 38.2695L97.5242 38.8012L99.3711 41.7433V38.2695H98.3711ZM98.3711 1.8125V0.8125H97.3711V1.8125H98.3711ZM107.195 1.8125H108.195V0.8125H107.195V1.8125ZM107.195 52H98.3008V54H107.195V52ZM99.1475 52.468L76.3311 16.1516L74.6376 17.2156L97.454 53.532L99.1475 52.468ZM74.4844 16.6836V53H76.4844V16.6836H74.4844ZM75.4844 52H66.5898V54H75.4844V52ZM67.5898 53V1.8125H65.5898V53H67.5898ZM66.5898 2.8125H75.4844V0.8125H66.5898V2.8125ZM74.6374 2.34418L97.5242 38.8012L99.218 37.7378L76.3313 1.28082L74.6374 2.34418ZM99.3711 38.2695V1.8125H97.3711V38.2695H99.3711ZM98.3711 2.8125H107.195V0.8125H98.3711V2.8125ZM106.195 1.8125V53H108.195V1.8125H106.195ZM136.492 41.8555L135.54 42.1614L136.487 45.1081L137.443 42.1644L136.492 41.8555ZM149.5 1.8125V0.8125H148.773L148.549 1.50355L149.5 1.8125ZM159.273 1.8125L160.214 2.15113L160.696 0.8125H159.273V1.8125ZM140.852 53V54H141.554L141.792 53.3386L140.852 53ZM132.238 53L131.297 53.3375L131.534 54H132.238V53ZM113.887 1.8125V0.8125H112.466L112.945 2.14999L113.887 1.8125ZM123.625 1.8125L124.577 1.50657L124.354 0.8125H123.625V1.8125ZM137.443 42.1644L150.451 2.12145L148.549 1.50355L135.541 41.5465L137.443 42.1644ZM149.5 2.8125H159.273V0.8125H149.5V2.8125ZM158.333 1.47387L139.911 52.6614L141.792 53.3386L160.214 2.15113L158.333 1.47387ZM140.852 52H132.238V54H140.852V52ZM133.18 52.6625L114.828 1.47501L112.945 2.14999L131.297 53.3375L133.18 52.6625ZM113.887 2.8125H123.625V0.8125H113.887V2.8125ZM122.673 2.11843L135.54 42.1614L137.444 41.5495L124.577 1.50657L122.673 2.11843ZM195.742 30.1484V31.1484H196.742V30.1484H195.742ZM174.719 30.1484V29.1484H173.719V30.1484H174.719ZM174.719 45.8984H173.719V46.8984H174.719V45.8984ZM199.293 45.8984H200.293V44.8984H199.293V45.8984ZM199.293 53V54H200.293V53H199.293ZM165.824 53H164.824V54H165.824V53ZM165.824 1.8125V0.8125H164.824V1.8125H165.824ZM199.047 1.8125H200.047V0.8125H199.047V1.8125ZM199.047 8.98438V9.98438H200.047V8.98438H199.047ZM174.719 8.98438V7.98438H173.719V8.98438H174.719ZM174.719 23.1172H173.719V24.1172H174.719V23.1172ZM195.742 23.1172H196.742V22.1172H195.742V23.1172ZM195.742 29.1484H174.719V31.1484H195.742V29.1484ZM173.719 30.1484V45.8984H175.719V30.1484H173.719ZM174.719 46.8984H199.293V44.8984H174.719V46.8984ZM198.293 45.8984V53H200.293V45.8984H198.293ZM199.293 52H165.824V54H199.293V52ZM166.824 53V1.8125H164.824V53H166.824ZM165.824 2.8125H199.047V0.8125H165.824V2.8125ZM198.047 1.8125V8.98438H200.047V1.8125H198.047ZM199.047 7.98438H174.719V9.98438H199.047V7.98438ZM173.719 8.98438V23.1172H175.719V8.98438H173.719ZM174.719 24.1172H195.742V22.1172H174.719V24.1172ZM194.742 23.1172V30.1484H196.742V23.1172H194.742ZM231.648 34.6133L231.035 35.4033L231.041 35.4076L231.648 34.6133ZM213.262 26.7734L212.73 27.6202L212.732 27.6214L213.262 26.7734ZM211.293 5.11719L210.672 4.33314L210.67 4.33525L211.293 5.11719ZM240.508 8.70312L239.671 9.25038L239.673 9.25408L240.508 8.70312ZM242.898 16.7539V17.7539H243.898V16.7539H242.898ZM234.039 16.7539H233.039V17.7539H234.039V16.7539ZM231.508 10.4961L230.833 11.2337L230.838 11.2386L230.843 11.2435L231.508 10.4961ZM217.551 10.0742L216.942 9.28115L216.936 9.28549L217.551 10.0742ZM217.762 19.9883L217.172 20.7961L217.179 20.8013L217.762 19.9883ZM226.34 23.6445L226.052 24.6024L226.058 24.6039L226.34 23.6445ZM235.938 27.6875L235.404 28.5332L235.41 28.5369L235.938 27.6875ZM241.246 32.8906L240.378 33.3868L240.38 33.3913L241.246 32.8906ZM238.012 49.9414L238.622 50.7338L238.623 50.7332L238.012 49.9414ZM214.492 51.6641L214.084 52.5771L214.092 52.5807L214.492 51.6641ZM207.25 45.9688L206.434 46.547L206.438 46.5522L207.25 45.9688ZM204.684 37.5312V36.5312H203.684V37.5312H204.684ZM213.578 37.5312H214.578V36.5312H213.578V37.5312ZM231.684 44.8086L232.31 45.5883L232.311 45.5872L231.684 44.8086ZM235.039 39.8164C235.039 37.2982 234.13 35.2517 232.256 33.8189L231.041 35.4076C232.355 36.4124 233.039 37.8346 233.039 39.8164H235.039ZM232.262 33.8233C230.534 32.4829 227.531 31.2103 223.394 29.9643L222.817 31.8794C226.93 33.1178 229.622 34.3062 231.035 35.4033L232.262 33.8233ZM223.394 29.9643C219.316 28.7364 216.126 27.3847 213.792 25.9254L212.732 27.6214C215.272 29.2091 218.645 30.623 222.817 31.8794L223.394 29.9643ZM213.794 25.9266C209.363 23.1437 207.266 19.6164 207.266 15.3125H205.266C205.266 20.4305 207.832 24.5438 212.73 27.6202L213.794 25.9266ZM207.266 15.3125C207.266 11.5054 208.792 8.38985 211.916 5.89912L210.67 4.33525C207.091 7.18827 205.266 10.8696 205.266 15.3125H207.266ZM211.914 5.90123C215.072 3.40085 219.207 2.10938 224.406 2.10938V0.109375C218.871 0.109375 214.264 1.48978 210.672 4.33315L211.914 5.90123ZM224.406 2.10938C227.844 2.10938 230.871 2.74218 233.508 3.98294L234.359 2.17331C231.418 0.78907 228.093 0.109375 224.406 0.109375V2.10938ZM233.508 3.98294C236.14 5.22142 238.184 6.97702 239.671 9.25037L241.345 8.15588C239.644 5.55423 237.306 3.55983 234.359 2.17331L233.508 3.98294ZM239.673 9.25408C241.157 11.5011 241.898 13.9923 241.898 16.7539H243.898C243.898 13.6092 243.046 10.7333 241.342 8.15217L239.673 9.25408ZM242.898 15.7539H234.039V17.7539H242.898V15.7539ZM235.039 16.7539C235.039 13.8538 234.113 11.4735 232.172 9.74869L230.843 11.2435C232.278 12.5187 233.039 14.3103 233.039 16.7539H235.039ZM232.183 9.75851C230.274 8.01104 227.607 7.21094 224.336 7.21094V9.21094C227.299 9.21094 229.413 9.93427 230.833 11.2337L232.183 9.75851ZM224.336 7.21094C221.3 7.21094 218.794 7.85825 216.942 9.28117L218.16 10.8673C219.542 9.80582 221.559 9.21094 224.336 9.21094V7.21094ZM216.936 9.28549C215.072 10.7382 214.16 12.7785 214.16 15.2773H216.16C216.16 13.323 216.842 11.8946 218.166 10.8629L216.936 9.28549ZM214.16 15.2773C214.16 17.5214 215.223 19.3735 217.172 20.7961L218.351 19.1805C216.832 18.0718 216.16 16.7833 216.16 15.2773H214.16ZM217.179 20.8013C219.053 22.143 222.043 23.3995 226.052 24.6024L226.627 22.6867C222.668 21.4989 219.939 20.3179 218.344 19.1753L217.179 20.8013ZM226.058 24.6039C229.99 25.7604 233.095 27.0759 235.404 28.5332L236.471 26.8418C233.952 25.2522 230.659 23.8724 226.622 22.6852L226.058 24.6039ZM235.41 28.5369C237.718 29.971 239.354 31.5943 240.378 33.3868L242.114 32.3945C240.889 30.2495 238.985 28.404 236.465 26.8381L235.41 28.5369ZM240.38 33.3913C241.404 35.1605 241.934 37.267 241.934 39.7461H243.934C243.934 36.9751 243.339 34.5114 242.112 32.39L240.38 33.3913ZM241.934 39.7461C241.934 43.7124 240.428 46.8141 237.401 49.1496L238.623 50.7332C242.158 48.0062 243.934 44.3111 243.934 39.7461H241.934ZM237.402 49.149C234.372 51.4808 230.183 52.7031 224.723 52.7031V54.7031C230.466 54.7031 235.135 53.4176 238.622 50.7338L237.402 49.149ZM224.723 52.7031C221.145 52.7031 217.872 52.0471 214.892 50.7474L214.092 52.5807C217.347 53.9998 220.894 54.7031 224.723 54.7031V52.7031ZM214.9 50.7511C211.945 49.4302 209.68 47.6366 208.062 45.3853L206.438 46.5522C208.289 49.1291 210.852 51.1323 214.084 52.577L214.9 50.7511ZM208.066 45.3905C206.485 43.16 205.684 40.5536 205.684 37.5312H203.684C203.684 40.9308 204.593 43.9494 206.434 46.547L208.066 45.3905ZM204.684 38.5312H213.578V36.5312H204.684V38.5312ZM212.578 37.5312C212.578 40.6807 213.633 43.2351 215.823 45.051L217.099 43.5115C215.445 42.1399 214.578 40.1943 214.578 37.5312H212.578ZM215.823 45.051C217.988 46.8467 221.003 47.6719 224.723 47.6719V45.6719C221.27 45.6719 218.778 44.9033 217.099 43.5115L215.823 45.051ZM224.723 47.6719C227.924 47.6719 230.51 47.0335 232.31 45.5883L231.057 44.0289C229.763 45.068 227.709 45.6719 224.723 45.6719V47.6719ZM232.311 45.5872C234.123 44.1268 235.039 42.1735 235.039 39.8164H233.039C233.039 41.5844 232.385 42.9591 231.056 44.03L232.311 45.5872ZM288.473 8.98438V9.98438H289.473V8.98438H288.473ZM272.512 8.98438V7.98438H271.512V8.98438H272.512ZM272.512 53V54H273.512V53H272.512ZM263.688 53H262.688V54H263.688V53ZM263.688 8.98438H264.688V7.98438H263.688V8.98438ZM247.867 8.98438H246.867V9.98438H247.867V8.98438ZM247.867 1.8125V0.8125H246.867V1.8125H247.867ZM288.473 1.8125H289.473V0.8125H288.473V1.8125ZM288.473 7.98438H272.512V9.98438H288.473V7.98438ZM271.512 8.98438V53H273.512V8.98438H271.512ZM272.512 52H263.688V54H272.512V52ZM264.688 53V8.98438H262.688V53H264.688ZM263.688 7.98438H247.867V9.98438H263.688V7.98438ZM248.867 8.98438V1.8125H246.867V8.98438H248.867ZM247.867 2.8125H288.473V0.8125H247.867V2.8125ZM287.473 1.8125V8.98438H289.473V1.8125H287.473Z" fill="black" />
    </g>
    <defs>
        <filter id="filter0_d" x="0.183594" y="0.109375" width="293.289" height="62.5938" filterUnits="userSpaceOnUse" colorInterpolationFilters="sRGB">
            <feFlood floodOpacity="0" result="BackgroundImageFix" />
            <feColorMatrix in="SourceAlpha" type="matrix" values="0 0 0 0 0 0 0 0 0 0 0 0 0 0 0 0 0 0 127 0" />
            <feOffset dy="4" />
            <feGaussianBlur stdDeviation="2" />
            <feColorMatrix type="matrix" values="0 0 0 0 0 0 0 0 0 0 0 0 0 0 0 0 0 0 0.25 0" />
            <feBlend mode="normal" in2="BackgroundImageFix" result="effect1_dropShadow" />
            <feBlend mode="normal" in="SourceGraphic" in2="effect1_dropShadow" result="shape" />
        </filter>
    </defs>
</svg>